<svg width="30" height="30" viewBox="0 0 30 30" fill="none" xmlns="http://www.w3.org/2000/svg">
    <path d="M15.0586 0C6.81457 0 0 6.69727 0 14.9414C0 23.1855 6.81457 30 15.0586 30C23.3026 30 30 23.1855 30 14.9414C30 6.69727 23.3026 0 15.0586 0Z" fill="#F1E292"/>
    <path d="M30 14.9414C30 23.1855 23.3026 30 15.0586 30V0C23.3026 0 30 6.69727 30 14.9414Z" fill="#FFCC33"/>
    <path d="M15.0586 3.51562C8.76551 3.51562 3.51562 8.64838 3.51562 14.9414C3.51562 21.2344 8.76551 26.4844 15.0586 26.4844C21.3517 26.4844 26.4844 21.2344 26.4844 14.9414C26.4844 8.64838 21.3517 3.51562 15.0586 3.51562Z" fill="#FEA832"/>
    <path d="M26.4844 14.9414C26.4844 21.2344 21.3517 26.4844 15.0586 26.4844V3.51562C21.3517 3.51562 26.4844 8.64838 26.4844 14.9414Z" fill="#FE9923"/>
    <path d="M22.8181 16.6938C22.778 16.8143 22.7378 16.9347 22.6174 17.0551C22.4168 17.2557 22.176 17.336 21.895 17.2557C21.0522 17.0149 20.2094 16.7741 19.4067 16.5333C19.1659 16.453 18.9653 16.3728 18.885 16.132C18.7245 15.6504 19.0054 15.2089 19.4469 15.2089C19.5673 15.2089 19.6877 15.2089 19.8081 15.249C20.4101 15.4497 21.0121 15.5701 21.574 15.7708C21.8148 15.851 22.0154 15.8912 22.2562 15.9714C22.5372 16.0517 22.6977 16.2122 22.778 16.4932C22.778 16.5333 22.778 16.5734 22.8181 16.5734C22.8181 16.5734 22.8181 16.6537 22.8181 16.6938Z" fill="#FEDB41"/>
    <path d="M19.9686 7.90451C20.2094 7.94464 20.3298 8.06505 20.4502 8.22558C20.5706 8.38612 20.5706 8.74732 20.4101 8.98813C20.3298 9.06839 20.2496 9.14866 20.1693 9.22893C19.9285 9.55 19.6476 9.83094 19.4067 10.152C19.1258 10.4731 18.885 10.7942 18.6041 11.0751C18.3231 11.3962 17.8817 11.356 17.6007 11.0751C17.5205 10.9547 17.4402 10.8343 17.4402 10.7139C17.4402 10.6336 17.4402 10.5534 17.4402 10.4731C17.4402 10.3527 17.5205 10.2323 17.6007 10.152C17.8415 9.87107 18.0823 9.63027 18.283 9.34933C18.5639 9.02826 18.8047 8.70719 19.0857 8.42625C19.1659 8.34598 19.2462 8.26572 19.2863 8.18545C19.4067 8.02491 19.5673 7.90451 19.768 7.90451C19.8482 7.90451 19.8884 7.90451 19.9686 7.90451Z" fill="#FEDB41"/>
    <path d="M14.3498 15.8109C13.9484 15.8109 13.5471 15.8109 13.1458 15.851C12.905 15.851 12.7043 15.851 12.4635 15.851C12.303 15.851 12.1826 15.851 12.022 15.8912C11.8615 15.9313 11.7411 16.0116 11.7009 16.1721C11.5404 16.5734 11.3799 17.0149 11.2595 17.4162C11.1792 17.6972 11.0588 17.9781 11.0187 18.2992C10.9785 18.4597 10.9785 18.6604 11.0187 18.8209C11.0187 18.9413 11.0989 19.0216 11.1792 19.1019C11.2996 19.1821 11.42 19.2223 11.5805 19.2624C11.7812 19.3025 11.9819 19.3427 12.1826 19.3427C12.303 19.3427 12.303 19.3828 12.303 19.5032C12.303 19.6637 12.303 19.8243 12.303 19.9848C12.303 20.025 12.2628 20.0651 12.2227 20.0651C12.1023 20.1052 12.022 20.1052 11.9016 20.1052C11.5404 20.1052 11.1792 20.1052 10.8581 20.0651C10.4969 20.025 10.1759 20.025 9.81465 20.0651C9.65412 20.0651 9.45345 20.0651 9.29291 20.1052C9.09224 20.1052 8.85144 20.1454 8.65077 20.1454C8.5705 20.1454 8.53037 20.1454 8.53037 20.025C8.49023 19.9046 8.49023 19.744 8.49023 19.6236C8.49023 19.5032 8.53037 19.4631 8.65077 19.4229C8.85144 19.3427 9.05211 19.2223 9.25278 19.1019C9.45345 18.9413 9.65412 18.7005 9.77452 18.4597C9.97519 18.0584 10.1759 17.6972 10.3364 17.2958C10.8581 16.132 11.2996 14.9279 11.7411 13.7239C12.0622 12.841 12.3832 11.958 12.7043 11.0751C12.8648 10.6336 13.0254 10.1921 13.1859 9.71053C13.3063 9.42959 13.507 9.18879 13.7478 9.02825C14.0689 8.82759 14.3899 8.62692 14.7511 8.46638C14.7913 8.42625 14.8314 8.42625 14.8715 8.46638C14.9919 8.54665 15.1123 8.62692 15.2327 8.70718C15.2729 8.74732 15.313 8.78745 15.313 8.86772C15.313 9.10852 15.3531 9.34933 15.3933 9.59013C15.4334 9.9112 15.5137 10.2323 15.5538 10.5132C15.6742 11.1554 15.8749 11.7574 16.0755 12.3594C16.2762 13.0015 16.517 13.6437 16.7177 14.2858C16.9986 15.1286 17.3197 15.9714 17.6408 16.8142C17.8816 17.4162 18.0822 18.0183 18.3632 18.5801C18.4434 18.7407 18.5639 18.9413 18.6843 19.0617C18.7645 19.142 18.8448 19.2223 18.9652 19.2624C19.1257 19.3025 19.2863 19.3828 19.4468 19.3828C19.4869 19.3828 19.5271 19.4229 19.5271 19.4631C19.5271 19.6637 19.5271 19.8243 19.5271 20.025C19.5271 20.0651 19.4869 20.1052 19.4468 20.1052C19.2461 20.1855 19.0455 20.1855 18.8448 20.1855C18.5237 20.1855 18.2026 20.1454 17.9217 20.1052C17.1592 20.0651 16.3565 20.0651 15.5939 20.0651C15.3531 20.0651 15.1123 20.0651 14.8715 20.1052C14.8314 20.1052 14.7511 20.1052 14.711 20.1052C14.6709 20.1052 14.6307 20.0651 14.6307 20.025C14.6307 19.8644 14.5906 19.7039 14.5906 19.5032C14.5906 19.4229 14.6307 19.4229 14.6709 19.3828C14.8715 19.3427 15.0722 19.3025 15.313 19.2624C15.4735 19.2223 15.5939 19.142 15.7143 19.0216C15.7545 18.9815 15.7946 18.9012 15.7946 18.8209C15.7946 18.4999 15.7143 18.2189 15.6341 17.938C15.4735 17.336 15.313 16.7741 15.1123 16.1721C15.0722 16.0918 15.0321 16.0116 14.9919 15.9313C14.9518 15.851 14.8715 15.8109 14.7511 15.8109C14.5906 15.8109 14.4702 15.8109 14.3498 15.8109ZM13.3866 15.0483C13.5471 15.0483 13.6675 15.0483 13.828 15.0483C14.0287 15.0483 14.2695 15.0483 14.4702 15.0483C14.5505 15.0483 14.5906 15.0082 14.5906 14.9279C14.5906 14.8477 14.5906 14.7273 14.5505 14.647C14.3899 14.1253 14.2294 13.6035 14.0689 13.0416C13.9484 12.6403 13.828 12.239 13.7478 11.8376C13.7076 11.6771 13.6675 11.5567 13.5872 11.3962C13.5471 11.3159 13.507 11.3159 13.4267 11.356C13.3866 11.3962 13.3464 11.4363 13.3464 11.4764C13.2662 11.637 13.226 11.7975 13.1458 11.958C12.7846 12.8811 12.4635 13.8042 12.1023 14.7273C12.022 14.9279 12.0622 14.9681 12.2628 14.9681C12.7043 15.0483 13.0254 15.0483 13.3866 15.0483Z" fill="#FEDB41"/>
    <path d="M22.7379 12.1587C22.7379 12.4798 22.5773 12.7206 22.2562 12.841C21.6141 13.0818 20.972 13.2825 20.3298 13.5233C20.1291 13.6035 19.9285 13.6838 19.6877 13.7239C19.2863 13.8443 18.8449 13.5634 18.8047 13.1621C18.7646 12.8811 18.885 12.6403 19.1258 12.4798C19.2061 12.4396 19.2462 12.4396 19.3265 12.3995C19.7278 12.239 20.1291 12.1186 20.5305 11.9982C20.8516 11.8778 21.1325 11.7975 21.4536 11.6771C21.6141 11.637 21.7345 11.5567 21.895 11.5567C22.2562 11.5166 22.5773 11.7172 22.6576 12.0784C22.7378 12.0784 22.7379 12.1186 22.7379 12.1587Z" fill="#FEDB41"/>
</svg>
